<svg width="174" height="183" viewBox="0 0 174 183" fill="none" xmlns="http://www.w3.org/2000/svg">
<g id="Xnix/Line/Diamond">
<g id="Vector">
<path id="Vector_642" fill-rule="evenodd" clip-rule="evenodd" d="M97.9231 68.2018L76.7468 54.7191L60.8236 61.7505L75.6306 78.0458L81.4639 151.583L97.9231 68.2018Z" fill="white" stroke="#82CFF5" stroke-width="7" stroke-linecap="round" stroke-linejoin="round"/>
<path id="Vector_642-2" d="M5.30556 106.978C4.9744 108.883 6.24977 110.695 8.15419 111.026C10.0586 111.357 11.8709 110.082 12.2021 108.177L5.30556 106.978ZM13.0546 82.8449L11.6408 79.6431C10.5703 80.1159 9.80687 81.0923 9.60639 82.2452L13.0546 82.8449ZM30.3917 79.0152C32.1599 78.2343 32.9604 76.1679 32.1796 74.3996C31.3987 72.6313 29.3323 71.8309 27.564 72.6117L30.3917 79.0152ZM10.5658 104.583C8.91204 103.583 6.7601 104.112 5.75926 105.766C4.75842 107.419 5.28769 109.571 6.94141 110.572L10.5658 104.583ZM81.4643 151.583L79.6521 154.577C81.1478 155.482 83.082 155.145 84.183 153.787C85.284 152.429 85.2141 150.467 84.0192 149.19L81.4643 151.583ZM33.601 95.3416C32.2798 93.9306 30.065 93.8577 28.6539 95.1789C27.2429 96.5 27.17 98.7149 28.4911 100.126L33.601 95.3416ZM7.33979 104.376C5.57152 105.157 4.77106 107.223 5.5519 108.992C6.33274 110.76 8.39919 111.56 10.1675 110.78L7.33979 104.376ZM32.4599 100.936C34.2282 100.155 35.0287 98.0883 34.2478 96.32C33.467 94.5518 31.4005 93.7513 29.6323 94.5321L32.4599 100.936ZM32.4629 75.4846C32.2813 73.5602 30.574 72.1473 28.6495 72.3289C26.7251 72.5105 25.3122 74.2178 25.4938 76.1423L32.4629 75.4846ZM27.5623 98.0627C27.7439 99.9871 29.4511 101.4 31.3756 101.218C33.3 101.037 34.7129 99.3295 34.5313 97.4051L27.5623 98.0627ZM27.5644 72.6117C25.7961 73.3926 24.9957 75.459 25.7765 77.2273C26.5573 78.9956 28.6238 79.796 30.3921 79.0152L27.5644 72.6117ZM62.2385 64.9523C64.0067 64.1715 64.8072 62.105 64.0264 60.3368C63.2455 58.5685 61.1791 57.768 59.4108 58.5489L62.2385 64.9523ZM29.6328 94.5321C27.8645 95.313 27.064 97.3794 27.8449 99.1477C28.6257 100.916 30.6922 101.716 32.4604 100.936L29.6328 94.5321ZM99.3378 71.4036C101.106 70.6227 101.907 68.5563 101.126 66.788C100.345 65.0197 98.2784 64.2193 96.5102 65.0001L99.3378 71.4036ZM12.2021 108.177L16.5029 83.4445L9.60639 82.2452L5.30556 106.978L12.2021 108.177ZM14.4685 86.0466L30.3917 79.0152L27.564 72.6117L11.6408 79.6431L14.4685 86.0466ZM6.94141 110.572L79.6521 154.577L83.2765 148.588L10.5658 104.583L6.94141 110.572ZM84.0192 149.19L33.601 95.3416L28.4911 100.126L78.9094 153.975L84.0192 149.19ZM10.1675 110.78L32.4599 100.936L29.6323 94.5321L7.33979 104.376L10.1675 110.78ZM25.4938 76.1423L27.5623 98.0627L34.5313 97.4051L32.4629 75.4846L25.4938 76.1423ZM30.3921 79.0152L62.2385 64.9523L59.4108 58.5489L27.5644 72.6117L30.3921 79.0152ZM32.4604 100.936L99.3378 71.4036L96.5102 65.0001L29.6328 94.5321L32.4604 100.936Z" fill="#82CFF5"/>
</g>
</g>
</svg>
