<svg width="105" height="105" viewBox="0 0 105 105" fill="none" xmlns="http://www.w3.org/2000/svg">
<g id="Xnix/Line/Wifi">
<g id="Xnix_Line_">
<path id="Vector" fill-rule="evenodd" clip-rule="evenodd" d="M56.4851 57.2991C59.0387 55.0578 62.9469 55.2872 65.2142 57.8116C67.4815 60.336 67.2494 64.1993 64.6958 66.4407C62.1421 68.682 58.234 68.4526 55.9667 65.9282C53.6994 63.4038 53.9315 59.5405 56.4851 57.2991Z" stroke="#FFC0C0" stroke-width="4" stroke-linecap="round" stroke-linejoin="round"/>
<path id="Vector-2" d="M39.2737 62.1366C39.0751 63.2169 39.8 64.2531 40.8929 64.4509C41.9858 64.6488 43.0329 63.9334 43.2315 62.8531L39.2737 62.1366ZM63.6301 44.9491C64.7387 44.882 65.5812 43.9389 65.5118 42.8427C65.4424 41.7465 64.4874 40.9122 63.3788 40.9793L63.6301 44.9491ZM29.0873 60.8537C28.8846 61.9332 29.6057 62.972 30.6979 63.1739C31.7901 63.3757 32.8397 62.6642 33.0424 61.5846L29.0873 60.8537ZM63.6355 34.7895C64.7406 34.6794 65.5449 33.7043 65.432 32.6115C65.3192 31.5188 64.3318 30.7222 63.2268 30.8323L63.6355 34.7895ZM43.2315 62.8531C45.0515 52.9553 53.4725 45.5641 63.6301 44.9491L63.3788 40.9793C51.3749 41.7061 41.4245 50.4397 39.2737 62.1366L43.2315 62.8531ZM33.0424 61.5846C35.0363 50.9638 40.3986 44.5546 46.3385 40.6474C52.3398 36.6998 59.029 35.2485 63.6355 34.7895L63.2268 30.8323C58.2363 31.3296 50.8406 32.906 44.1071 37.3352C37.3122 41.8048 31.2898 49.1216 29.0873 60.8537L33.0424 61.5846Z" fill="#FFC0C0"/>
</g>
</g>
</svg>
