<svg width="47" height="47" viewBox="0 0 47 47" fill="none" xmlns="http://www.w3.org/2000/svg">
<g id="User Interface / Vibration">
<path id="Vector" d="M19.3485 27.6517L19.0547 27.4167L18.7022 27.2209L18.3497 27.1229C18.0351 27.0599 17.7098 27.0752 17.4025 27.1674C17.0952 27.2596 16.8152 27.4259 16.5872 27.6517C16.3935 27.8291 16.2457 28.0509 16.1564 28.2979C16.0528 28.5324 15.9993 28.7858 15.9993 29.0421C15.9993 29.2984 16.0528 29.5519 16.1564 29.7863C16.3668 30.2568 16.7433 30.6333 17.2139 30.8438C17.4493 30.9441 17.7022 30.9973 17.9581 31.0004C18.2201 30.9955 18.479 30.9424 18.7218 30.8438C18.9605 30.7492 19.1747 30.6019 19.3485 30.4129C19.5317 30.2342 19.678 30.0213 19.7793 29.7863C19.873 29.5495 19.9195 29.2967 19.9164 29.0421C19.923 28.7852 19.8694 28.5304 19.7597 28.2979C19.67 28.0558 19.5298 27.8355 19.3485 27.6517ZM6.8739 17.155C7.133 17.1539 7.38931 17.1015 7.62798 17.0006C7.86665 16.8998 8.08294 16.7526 8.26431 16.5675L16.5676 8.26419C16.9324 7.89727 17.1371 7.40093 17.1371 6.88357C17.1371 6.3662 16.9324 5.86986 16.5676 5.50294C16.2007 5.1382 15.7044 4.93347 15.187 4.93347C14.6697 4.93347 14.1733 5.1382 13.8064 5.50294L5.50306 13.8063C5.13832 14.1732 4.93359 14.6695 4.93359 15.1869C4.93359 15.7043 5.13832 16.2006 5.50306 16.5675C5.86463 16.9365 6.35735 17.1477 6.8739 17.155ZM41.4972 30.4325C41.1303 30.0678 40.634 29.8631 40.1166 29.8631C39.5992 29.8631 39.1029 30.0678 38.736 30.4325L30.4326 38.7359C30.1577 39.0086 29.9697 39.3568 29.8926 39.7363C29.8155 40.1159 29.8526 40.5098 29.9993 40.8682C30.1461 41.2266 30.3958 41.5335 30.7169 41.75C31.038 41.9665 31.4162 42.083 31.8035 42.0846C32.0626 42.0835 32.3189 42.0311 32.5576 41.9302C32.7962 41.8294 33.0125 41.6821 33.1939 41.4971L41.4972 33.2917C41.6929 33.1085 41.8489 32.8871 41.9555 32.6412C42.0621 32.3953 42.1171 32.1301 42.1171 31.8621C42.1171 31.5941 42.0621 31.3289 41.9555 31.083C41.8489 30.8371 41.6929 30.6157 41.4972 30.4325ZM41.8301 19.3484C41.834 17.7935 41.2213 16.3006 40.1264 15.1967L31.8035 6.87377C30.6828 5.81038 29.1967 5.21757 27.6518 5.21757C26.1069 5.21757 24.6209 5.81038 23.5001 6.87377L6.8739 23.5C5.7737 24.6016 5.15573 26.0948 5.15573 27.6517C5.15573 29.2086 5.7737 30.7018 6.8739 31.8034L15.1968 40.1263C16.2984 41.2265 17.7916 41.8444 19.3485 41.8444C20.9054 41.8444 22.3986 41.2265 23.5001 40.1263L40.1264 23.5C41.2213 22.3961 41.834 20.9032 41.8301 19.3484ZM37.3456 20.7388L20.7389 37.3454C20.5568 37.529 20.3403 37.6747 20.1016 37.7741C19.863 37.8735 19.607 37.9247 19.3485 37.9247C19.09 37.9247 18.834 37.8735 18.5954 37.7741C18.3567 37.6747 18.1401 37.529 17.9581 37.3454L9.65473 29.0421C9.47118 28.8601 9.32549 28.6435 9.22607 28.4048C9.12665 28.1662 9.07546 27.9102 9.07546 27.6517C9.07546 27.3932 9.12665 27.1372 9.22607 26.8986C9.32549 26.6599 9.47118 26.4433 9.65473 26.2613L26.2614 9.65461C26.4434 9.47106 26.66 9.32537 26.8987 9.22594C27.1373 9.12652 27.3933 9.07534 27.6518 9.07534C27.9103 9.07534 28.1663 9.12652 28.4049 9.22594C28.6436 9.32537 28.8602 9.47106 29.0422 9.65461L37.3456 17.9579C37.5291 18.14 37.6748 18.3566 37.7742 18.5952C37.8736 18.8339 37.9248 19.0898 37.9248 19.3484C37.9248 19.6069 37.8736 19.8628 37.7742 20.1015C37.6748 20.3401 37.5291 20.5567 37.3456 20.7388Z" fill="#FFC0C0"/>
</g>
</svg>
