<svg width="83" height="83" viewBox="0 0 83 83" fill="none" xmlns="http://www.w3.org/2000/svg">
<g id="Xnix/Line/Rocket">
<g id="Vector">
<path id="Vector-50" fill-rule="evenodd" clip-rule="evenodd" d="M33.9076 31.1931C31.5663 34.7068 29.4602 38.2239 28.1668 40.5306L24.9194 37.1587C22.8993 35.0249 22.8993 31.6842 24.9194 29.5504C25.8756 28.5474 27.1995 27.9778 28.5852 27.9734H36.1417C35.3878 29.0074 34.6373 30.0864 33.9076 31.1931Z" stroke="#C0E7FA" stroke-width="4" stroke-linecap="round" stroke-linejoin="round"/>
<path id="Vector-51" fill-rule="evenodd" clip-rule="evenodd" d="M51.8063 49.09C48.2926 51.4313 44.7755 53.5375 42.4688 54.8309L45.8406 58.0782C47.9744 60.0984 51.3151 60.0984 53.449 58.0782C54.452 57.1221 55.0215 55.7981 55.026 54.4124V46.856C53.9919 47.6099 52.9129 48.3603 51.8063 49.09Z" stroke="#C0E7FA" stroke-width="4" stroke-linecap="round" stroke-linejoin="round"/>
<path id="Vector-52" d="M26.7254 47.0627C27.5063 46.2815 27.506 45.0152 26.7248 44.2343C25.9436 43.4534 24.6773 43.4537 23.8964 44.2349L26.7254 47.0627ZM15.8765 52.2582C15.0956 53.0394 15.0959 54.3058 15.8771 55.0867C16.6583 55.8675 17.9247 55.8673 18.7055 55.086L15.8765 52.2582ZM32.7399 53.0834C33.5206 52.302 33.5201 51.0357 32.7387 50.255C31.9573 49.4743 30.6909 49.4748 29.9102 50.2562L32.7399 53.0834ZM25.9055 54.2644C25.1248 55.0458 25.1253 56.3121 25.9067 57.0928C26.6881 57.8735 27.9544 57.873 28.7351 57.0916L25.9055 54.2644ZM29.5805 39.1007C28.7985 38.3206 27.5322 38.3221 26.752 39.1041C25.9719 39.8861 25.9735 41.1524 26.7555 41.9325L29.5805 39.1007ZM35.3336 47.665L36.7496 46.2525L36.7461 46.2491L35.3336 47.665ZM41.0661 56.2431C41.8462 57.0251 43.1125 57.0267 43.8945 56.2466C44.6765 55.4665 44.678 54.2001 43.8979 53.4181L41.0661 56.2431ZM34.4826 26.837C33.8665 27.7538 34.1103 28.9964 35.0271 29.6125C35.9439 30.2286 37.1865 29.9848 37.8026 29.068L34.4826 26.837ZM42.4298 20.5828L41.1514 19.0447C41.1225 19.0688 41.0943 19.0936 41.0667 19.1192L42.4298 20.5828ZM65.3828 17.6155L67.3729 17.4172C67.2785 16.4695 66.5288 15.7198 65.5811 15.6254L65.3828 17.6155ZM62.4155 40.572L63.8791 41.935C63.9049 41.9073 63.9299 41.8789 63.9541 41.8498L62.4155 40.572ZM53.9303 45.1992C53.0135 45.8153 52.7697 47.0579 53.3858 47.9747C54.0019 48.8915 55.2445 49.1353 56.1613 48.5192L53.9303 45.1992ZM38.7634 59.1018C39.5446 58.3209 39.5449 57.0546 38.764 56.2733C37.9831 55.4921 36.7168 55.4919 35.9356 56.2727L38.7634 59.1018ZM27.9123 64.2926C27.131 65.0735 27.1308 66.3398 27.9117 67.121C28.6925 67.9023 29.9589 67.9025 30.7401 67.1216L27.9123 64.2926ZM57.8914 27.935C58.6724 27.1539 58.6724 25.8876 57.8914 25.1065C57.1103 24.3255 55.844 24.3255 55.063 25.1065L57.8914 27.935ZM50.785 29.3845C50.004 30.1655 50.004 31.4319 50.785 32.2129C51.5661 32.994 52.8324 32.994 53.6134 32.2129L50.785 29.3845ZM23.8964 44.2349L15.8765 52.2582L18.7055 55.086L26.7254 47.0627L23.8964 44.2349ZM29.9102 50.2562L25.9055 54.2644L28.7351 57.0916L32.7399 53.0834L29.9102 50.2562ZM26.7555 41.9325L33.9211 49.0809L36.7461 46.2491L29.5805 39.1007L26.7555 41.9325ZM33.9177 49.0775L41.0661 56.2431L43.8979 53.4181L36.7496 46.2525L33.9177 49.0775ZM37.8026 29.068C39.5242 26.506 41.5341 24.1501 43.7929 22.0464L41.0667 19.1192C38.584 21.4315 36.3748 24.021 34.4826 26.837L37.8026 29.068ZM43.7082 22.1209C44.5138 21.4513 45.8288 20.8539 47.6208 20.3863C49.3813 19.9269 51.4422 19.6331 53.5971 19.467C57.9081 19.1346 62.3942 19.3277 65.1845 19.6057L65.5811 15.6254C62.6098 15.3293 57.8829 15.1247 53.2896 15.4788C50.9923 15.6559 48.6782 15.9764 46.6109 16.5159C44.575 17.0471 42.6093 17.833 41.1514 19.0447L43.7082 22.1209ZM63.3926 17.8138C63.6707 20.6042 63.8637 25.0902 63.5314 29.4017C63.3652 31.5568 63.0714 33.6181 62.612 35.3791C62.1444 37.1716 61.5469 38.4875 60.877 39.2941L63.9541 41.8498C65.1655 40.3912 65.9513 38.4251 66.4825 36.3888C67.0219 34.3211 67.3424 32.0067 67.5195 29.7092C67.8736 25.1155 67.669 20.3885 67.3729 17.4172L63.3926 17.8138ZM60.952 39.2089C58.8483 41.4677 56.4923 43.4776 53.9303 45.1992L56.1613 48.5192C58.9773 46.6269 61.5668 44.4178 63.8791 41.935L60.952 39.2089ZM35.9356 56.2727L27.9123 64.2926L30.7401 67.1216L38.7634 59.1018L35.9356 56.2727ZM55.063 25.1065L50.785 29.3845L53.6134 32.2129L57.8914 27.935L55.063 25.1065Z" fill="#C0E7FA"/>
</g>
</g>
</svg>
