<svg width="61" height="61" viewBox="0 0 61 61" fill="none" xmlns="http://www.w3.org/2000/svg">
<g id="User Interface / Newspaper">
<path id="Vector" d="M43.2085 27.9583H40.6668C39.9927 27.9583 39.3463 28.2261 38.8696 28.7028C38.3929 29.1794 38.1252 29.8259 38.1252 30.5C38.1252 31.1741 38.3929 31.8206 38.8696 32.2972C39.3463 32.7739 39.9927 33.0417 40.6668 33.0417H43.2085C43.8826 33.0417 44.5291 32.7739 45.0057 32.2972C45.4824 31.8206 45.7502 31.1741 45.7502 30.5C45.7502 29.8259 45.4824 29.1794 45.0057 28.7028C44.5291 28.2261 43.8826 27.9583 43.2085 27.9583ZM43.2085 38.125H40.6668C39.9927 38.125 39.3463 38.3928 38.8696 38.8694C38.3929 39.3461 38.1252 39.9926 38.1252 40.6667C38.1252 41.3408 38.3929 41.9872 38.8696 42.4639C39.3463 42.9406 39.9927 43.2083 40.6668 43.2083H43.2085C43.8826 43.2083 44.5291 42.9406 45.0057 42.4639C45.4824 41.9872 45.7502 41.3408 45.7502 40.6667C45.7502 39.9926 45.4824 39.3461 45.0057 38.8694C44.5291 38.3928 43.8826 38.125 43.2085 38.125ZM27.9585 22.875H43.2085C43.8826 22.875 44.5291 22.6072 45.0057 22.1306C45.4824 21.6539 45.7502 21.0074 45.7502 20.3333C45.7502 19.6592 45.4824 19.0128 45.0057 18.5361C44.5291 18.0594 43.8826 17.7917 43.2085 17.7917H27.9585C27.2844 17.7917 26.6379 18.0594 26.1613 18.5361C25.6846 19.0128 25.4168 19.6592 25.4168 20.3333C25.4168 21.0074 25.6846 21.6539 26.1613 22.1306C26.6379 22.6072 27.2844 22.875 27.9585 22.875ZM53.3752 7.625H17.7918C17.1177 7.625 16.4713 7.89278 15.9946 8.36944C15.5179 8.84609 15.2502 9.49257 15.2502 10.1667V17.7917H7.62516C6.95107 17.7917 6.30459 18.0594 5.82793 18.5361C5.35128 19.0128 5.0835 19.6592 5.0835 20.3333V45.75C5.0835 47.7723 5.88684 49.7117 7.31681 51.1417C8.74677 52.5717 10.6862 53.375 12.7085 53.375H45.7502C48.4465 53.375 51.0325 52.3039 52.9391 50.3973C54.8457 48.4906 55.9168 45.9047 55.9168 43.2083V10.1667C55.9168 9.49257 55.6491 8.84609 55.1724 8.36944C54.6957 7.89278 54.0493 7.625 53.3752 7.625ZM15.2502 45.75C15.2502 46.4241 14.9824 47.0706 14.5057 47.5472C14.0291 48.0239 13.3826 48.2917 12.7085 48.2917C12.0344 48.2917 11.3879 48.0239 10.9113 47.5472C10.4346 47.0706 10.1668 46.4241 10.1668 45.75V22.875H15.2502V45.75ZM50.8335 43.2083C50.8335 44.5565 50.2979 45.8495 49.3446 46.8028C48.3913 47.7561 47.0983 48.2917 45.7502 48.2917H19.876C20.1719 47.4766 20.3266 46.6171 20.3335 45.75V12.7083H50.8335V43.2083ZM27.9585 33.0417H30.5002C31.1743 33.0417 31.8207 32.7739 32.2974 32.2972C32.774 31.8206 33.0418 31.1741 33.0418 30.5C33.0418 29.8259 32.774 29.1794 32.2974 28.7028C31.8207 28.2261 31.1743 27.9583 30.5002 27.9583H27.9585C27.2844 27.9583 26.6379 28.2261 26.1613 28.7028C25.6846 29.1794 25.4168 29.8259 25.4168 30.5C25.4168 31.1741 25.6846 31.8206 26.1613 32.2972C26.6379 32.7739 27.2844 33.0417 27.9585 33.0417ZM27.9585 43.2083H30.5002C31.1743 43.2083 31.8207 42.9406 32.2974 42.4639C32.774 41.9872 33.0418 41.3408 33.0418 40.6667C33.0418 39.9926 32.774 39.3461 32.2974 38.8694C31.8207 38.3928 31.1743 38.125 30.5002 38.125H27.9585C27.2844 38.125 26.6379 38.3928 26.1613 38.8694C25.6846 39.3461 25.4168 39.9926 25.4168 40.6667C25.4168 41.3408 25.6846 41.9872 26.1613 42.4639C26.6379 42.9406 27.2844 43.2083 27.9585 43.2083Z" fill="#DCF4FF"/>
</g>
</svg>
