<svg width="80" height="81" viewBox="0 0 80 81" fill="none" xmlns="http://www.w3.org/2000/svg">
<g id="Group 415">
<rect id="Rectangle 1" x="23.207" y="15" width="47.1034" height="27.5392" transform="rotate(17.3372 23.207 15)" fill="white"/>
<g id="Device / monitor" clip-path="url(#clip0_85_1059)">
<path id="Vector" d="M65.0142 23.2836L29.9522 11.6634C27.9596 11.003 25.7862 11.1612 23.9102 12.1032C22.0342 13.0453 20.6093 14.694 19.9489 16.6866L13.3088 36.722C12.6484 38.7147 12.8066 40.888 13.7486 42.764C14.6907 44.64 16.3394 46.0649 18.332 46.7253L33.3586 51.7054L31.6985 56.7143L21.6808 53.3942C21.0166 53.1741 20.2922 53.2268 19.6668 53.5409C19.0415 53.8549 18.5665 54.4044 18.3464 55.0686C18.1263 55.7329 18.179 56.4573 18.493 57.0826C18.807 57.708 19.3566 58.183 20.0208 58.4031L45.0651 66.7033C45.7293 66.9234 46.4537 66.8706 47.0791 66.5566C47.7044 66.2426 48.1794 65.6931 48.3995 65.0288C48.6196 64.3646 48.5669 63.6402 48.2529 63.0148C47.9389 62.3895 47.3893 61.9145 46.7251 61.6944L36.7074 58.3743L38.3674 53.3655L53.394 58.3456C55.3866 59.006 57.56 58.8478 59.436 57.9057C61.312 56.9637 62.7369 55.315 63.3973 53.3224L70.0374 33.287C70.6978 31.2943 70.5396 29.1209 69.5976 27.2449C68.6555 25.369 67.0068 23.944 65.0142 23.2836ZM58.3884 51.6623C58.1683 52.3265 57.6933 52.8761 57.068 53.1901C56.4427 53.5041 55.7182 53.5569 55.054 53.3367L19.992 41.7165C19.3278 41.4964 18.7783 41.0214 18.4643 40.3961C18.1502 39.7707 18.0975 39.0463 18.3176 38.3821L24.9578 18.3467C25.1779 17.6824 25.6529 17.1329 26.2782 16.8189C26.9035 16.5048 27.628 16.4521 28.2922 16.6722L63.3542 28.2925C64.0184 28.5126 64.5679 28.9876 64.882 29.6129C65.196 30.2382 65.2487 30.9627 65.0286 31.6269L58.3884 51.6623Z" fill="#89D687"/>
</g>
</g>
<defs>
<clipPath id="clip0_85_1059">
<rect width="63.3212" height="63.3212" fill="white" transform="translate(19.9199) rotate(18.3362)"/>
</clipPath>
</defs>
</svg>
