<svg width="428" height="428" viewBox="0 0 428 428" fill="none" xmlns="http://www.w3.org/2000/svg">
<g id="Group 4">
<path id="&#208;&#188;&#209;&#139; &#208;&#178; &#209;&#134;&#208;&#184;&#209;&#132;&#209;&#128;&#208;&#176;&#209;&#133;" d="M88.6206 226V200.946H96.1914L100.737 218.036L105.232 200.946H112.82V226H108.12V206.278L103.147 226H98.2764L93.3203 206.278V226H88.6206ZM119.381 200.946H124.44V210.961H131.207C132.984 210.961 134.511 211.206 135.787 211.696C137.075 212.174 138.146 213.04 139 214.293C139.855 215.535 140.282 216.965 140.282 218.583C140.282 220.281 139.837 221.745 138.949 222.975C138.06 224.194 137.069 225.003 135.975 225.402C134.893 225.801 133.303 226 131.207 226H119.381V200.946ZM124.44 221.796H129.379C130.951 221.796 132.045 221.722 132.66 221.574C133.286 221.414 133.839 221.061 134.317 220.514C134.807 219.967 135.052 219.301 135.052 218.515C135.052 217.398 134.654 216.561 133.856 216.002C133.07 215.444 131.646 215.165 129.584 215.165H124.44V221.796ZM143.204 200.946H148.263V226H143.204V200.946ZM166.085 200.946H176.099C178.082 200.946 179.557 201.032 180.526 201.203C181.505 201.362 182.377 201.704 183.14 202.228C183.915 202.752 184.559 203.453 185.072 204.33C185.584 205.196 185.841 206.17 185.841 207.252C185.841 208.426 185.522 209.503 184.884 210.482C184.257 211.462 183.402 212.197 182.32 212.687C183.847 213.131 185.02 213.889 185.841 214.96C186.661 216.031 187.071 217.29 187.071 218.737C187.071 219.876 186.803 220.987 186.268 222.069C185.744 223.14 185.02 224 184.097 224.65C183.186 225.288 182.058 225.681 180.714 225.829C179.871 225.92 177.837 225.977 174.613 226H166.085V200.946ZM171.143 205.116V210.91H174.459C176.43 210.91 177.655 210.881 178.133 210.824C178.999 210.722 179.677 210.425 180.167 209.936C180.668 209.434 180.919 208.779 180.919 207.97C180.919 207.195 180.702 206.569 180.269 206.09C179.848 205.6 179.215 205.304 178.372 205.202C177.871 205.145 176.43 205.116 174.049 205.116H171.143ZM171.143 215.08V221.779H175.826C177.649 221.779 178.805 221.728 179.295 221.625C180.047 221.488 180.657 221.158 181.124 220.634C181.602 220.098 181.842 219.386 181.842 218.498C181.842 217.746 181.659 217.108 181.295 216.583C180.93 216.059 180.4 215.678 179.705 215.438C179.022 215.199 177.529 215.08 175.228 215.08H171.143ZM203.987 200.946H209.046V221.796H218.855V200.946H223.914V221.796H225.999V231.469H221.795V226H203.987V200.946ZM230.937 200.946H235.671V217.626L245.822 200.946H250.863V226H246.129V209.645L235.995 226H230.937V200.946ZM272.293 223.078V226H267.337V223.078C263.338 222.93 260.512 221.944 258.86 220.121C257.219 218.287 256.399 215.997 256.399 213.251C256.399 210.357 257.259 208.039 258.98 206.295C260.7 204.541 263.486 203.59 267.337 203.441V200.963H272.293V203.441C276.269 203.59 279.083 204.569 280.735 206.381C282.398 208.192 283.23 210.488 283.23 213.268C283.23 216.025 282.404 218.315 280.752 220.138C279.1 221.95 276.28 222.93 272.293 223.078ZM272.293 218.856C273.614 218.856 274.748 218.634 275.694 218.19C276.651 217.746 277.328 217.147 277.727 216.396C278.126 215.644 278.325 214.544 278.325 213.097C278.325 209.474 276.314 207.663 272.293 207.663V218.856ZM267.337 218.856V207.663C265.206 207.663 263.668 208.141 262.722 209.098C261.777 210.044 261.304 211.479 261.304 213.405C261.304 217.039 263.315 218.856 267.337 218.856ZM288.698 226V200.946H296.815C299.891 200.946 301.897 201.072 302.831 201.322C304.266 201.698 305.468 202.519 306.437 203.783C307.405 205.036 307.889 206.66 307.889 208.654C307.889 210.192 307.61 211.485 307.052 212.533C306.494 213.581 305.782 214.407 304.916 215.011C304.061 215.604 303.19 215.997 302.301 216.19C301.093 216.43 299.345 216.549 297.054 216.549H293.756V226H288.698ZM293.756 205.185V212.294H296.525C298.519 212.294 299.852 212.163 300.524 211.901C301.196 211.639 301.72 211.229 302.096 210.67C302.483 210.112 302.677 209.463 302.677 208.722C302.677 207.811 302.409 207.059 301.874 206.466C301.338 205.874 300.66 205.504 299.84 205.355C299.236 205.242 298.023 205.185 296.2 205.185H293.756ZM332.959 226H327.456L325.268 220.309H315.254L313.186 226H307.82L317.578 200.946H322.927L332.959 226ZM323.645 216.088L320.193 206.791L316.809 216.088H323.645ZM334.513 226L343.075 212.926L335.316 200.946H341.229L346.253 208.996L351.175 200.946H357.037L349.244 213.114L357.806 226H351.705L346.151 217.335L340.58 226H334.513Z" fill="black"/>
<circle id="Ellipse 4" cx="213.5" cy="213.5" r="181.5" stroke="#82CFF5" stroke-width="4"/>
<g id="Group 3">
<path id="Ellipse 5" d="M357.398 265.564C308.397 383.064 172.18 380.753 110.92 324.984C49.6603 269.216 45.2088 174.345 100.977 113.085C156.746 51.8254 294.398 22.5633 357.398 163.564" stroke="#E30513" stroke-width="4"/>
<circle id="Ellipse 2" cx="358.398" cy="171.563" r="8.5" stroke="#E30513" stroke-width="2"/>
<circle id="Ellipse 6" cx="358.398" cy="257.563" r="8.5" stroke="#E30513" stroke-width="2"/>
</g>
</g>
</svg>
