<svg width="16" height="12" viewBox="0 0 16 12" fill="none" xmlns="http://www.w3.org/2000/svg">
<path id="Vector-12" d="M9.06034 10.2759C8.66041 10.6567 8.64498 11.2897 9.02586 11.6897C9.40675 12.0896 10.0397 12.105 10.4397 11.7241L9.06034 10.2759ZM15.6897 6.72414C16.0896 6.34325 16.105 5.71028 15.7241 5.31034C15.3433 4.91041 14.7103 4.89498 14.3103 5.27586L15.6897 6.72414ZM14.3103 6.72414C14.7103 7.10502 15.3433 7.08959 15.7241 6.68966C16.105 6.28972 16.0896 5.65675 15.6897 5.27586L14.3103 6.72414ZM10.4397 0.275862C10.0397 -0.105024 9.40675 -0.0895853 9.02586 0.310345C8.64498 0.710275 8.66041 1.34325 9.06034 1.72414L10.4397 0.275862ZM15 7C15.5523 7 16 6.55228 16 6C16 5.44772 15.5523 5 15 5V7ZM1 5C0.447715 5 0 5.44772 0 6C0 6.55228 0.447715 7 1 7V5ZM10.4397 11.7241L15.6897 6.72414L14.3103 5.27586L9.06034 10.2759L10.4397 11.7241ZM15.6897 5.27586L10.4397 0.275862L9.06034 1.72414L14.3103 6.72414L15.6897 5.27586ZM15 5L1 5V7L15 7V5Z" fill="white"/>
</svg>
